<svg xmlns="http://www.w3.org/2000/svg" version="1.1" xlink="http://www.w3.org/1999/xlink" xmlns:svgjs="http://svgjs.com/svgjs" width="100%" height="100%" viewBox="4.869999885559082 -35.029998779296875 302.2099914550781 35.090003967285156"><g fill="#ffffff"><path d="M4.87 -30.82L4.87 -4.14L12 0L24.37 0L24.37 -7.13L12.79 -7.13L12.79 -28.14L24.61 -28.14L24.61 -35.03L12 -35.03ZM39.17 -11.33L47.09 -11.33L47.09 -4.14L39.96 0L27.6 0L27.6 -7.13L39.17 -7.13ZM47.09 -23.88L39.17 -23.88L39.17 -28.14L27.35 -28.14L27.35 -35.03L39.96 -35.03L47.09 -30.82Z M56.84 -22.6L56.84 -4.26L63.96 -0.06L73.59 -0.06L73.59 -6.58L64.45 -6.58L64.45 -21.08L73.59 -21.08L73.59 -26.8L63.96 -26.8ZM92.59 -22.6L92.59 -4.26L85.47 -0.06L75.78 -0.06L75.78 -6.58L84.98 -6.58L84.98 -21.08L75.78 -21.08L75.78 -26.8L85.47 -26.8Z M103.56 -26.8L103.56 -0.06L111.3 -0.06L111.3 -21.08L120.31 -21.08L120.31 -26.8L111.3 -24.18L111.3 -26.8ZM140.05 -22.6L140.05 -0.06L132.43 -0.06L132.43 -21.08L123.23 -21.08L123.23 -26.8L132.86 -26.8Z M161.98 -26.62L161.98 -20.96L171.12 -20.96L171.12 -26.62ZM178.79 -9.14L171.12 -9.14L171.12 -6.4L161.98 -6.4L161.98 0L171.85 0L178.79 -4.2ZM159.24 -30.82L146.14 -23.57L146.14 -20.89L151.62 -20.96L151.62 -4.2L159.24 0L159.24 -6.4Z M185.49 -11.88L185.49 -4.14L192.44 0.06L202.43 0.06L202.43 -6.4L193.23 -6.4L193.23 -11.39L202.43 -11.39L202.43 -16.08L192.44 -16.08ZM185.49 -18.34L193.23 -18.34L193.23 -21.08L202.43 -21.08L202.43 -26.8L192.44 -26.8L185.49 -22.54ZM222.04 -22.54L222.04 0.06L205.35 0.06L205.35 -6.4L214.31 -6.4L214.31 -11.39L205.11 -11.39L205.11 -16.08L214.31 -16.08L214.31 -21.08L205.11 -21.08L205.11 -26.8L215.1 -26.8Z M232.4 -22.66L232.4 -4.2L239.34 0L249.09 0L249.09 -6.46L240.13 -6.46L240.13 -21.14L249.33 -21.14L249.33 -26.86L239.34 -26.86ZM268.95 -18.4L261.27 -18.4L261.27 -21.14L252.07 -21.14L252.07 -26.86L262 -26.86L268.95 -22.66ZM268.95 -8.47L261.27 -8.47L261.27 -6.46L252.07 -6.46L252.07 0L262 0L268.95 -4.2Z M290.27 -26.62L290.27 -20.96L299.41 -20.96L299.41 -26.62ZM307.08 -9.14L299.41 -9.14L299.41 -6.4L290.27 -6.4L290.27 0L300.14 0L307.08 -4.2ZM287.53 -30.82L274.43 -23.57L274.43 -20.89L279.91 -20.96L279.91 -4.2L287.53 0L287.53 -6.4Z"></path></g></svg>