<svg xmlns="http://www.w3.org/2000/svg" version="1.1" xlink="http://www.w3.org/1999/xlink" xmlns:svgjs="http://svgjs.com/svgjs" width="100%" height="100%" viewBox="2.7699999809265137 -49.2599983215332 301.1300048828125 50.51000213623047"><g fill="#ffffff"><path d="M15.62 -12.85L30.22 -12.85C32.58 -12.85 34.61 -14 36.3 -16.3C38 -18.6 38.85 -21.38 38.85 -24.63C38.85 -27.86 38 -30.63 36.3 -32.94C34.61 -35.25 32.58 -36.41 30.22 -36.41L15.62 -36.41ZM17.76 -14.99L17.76 -34.27L30.22 -34.27C31.99 -34.27 33.5 -33.33 34.76 -31.45C36.02 -29.58 36.65 -27.31 36.65 -24.63C36.65 -21.97 36.02 -19.7 34.76 -17.82C33.5 -15.93 31.99 -14.99 30.22 -14.99ZM13.47 -10.71L13.47 -38.55L30.22 -38.55C32.16 -38.55 33.96 -37.93 35.62 -36.69C37.27 -35.45 38.59 -33.76 39.58 -31.62C40.56 -29.48 41.05 -27.15 41.05 -24.63C41.05 -20.8 39.98 -17.52 37.85 -14.8C35.72 -12.07 33.18 -10.71 30.22 -10.71ZM11.33 -8.57L30.22 -8.57C32.54 -8.57 34.7 -9.28 36.7 -10.71C38.71 -12.14 40.3 -14.09 41.48 -16.57C42.66 -19.05 43.25 -21.73 43.25 -24.63C43.25 -27.54 42.66 -30.24 41.48 -32.7C40.3 -35.17 38.71 -37.12 36.7 -38.55C34.7 -39.98 32.54 -40.69 30.22 -40.69L11.33 -40.69ZM9.19 -6.42L9.19 -42.83L30.22 -42.83C32.92 -42.83 35.44 -42.02 37.78 -40.39C40.12 -38.77 41.98 -36.55 43.37 -33.75C44.76 -30.94 45.45 -27.9 45.45 -24.63C45.45 -21.34 44.76 -18.29 43.37 -15.5C41.98 -12.7 40.12 -10.49 37.79 -8.86C35.46 -7.24 32.94 -6.42 30.22 -6.42ZM7.05 -4.28L30.22 -4.28C33.31 -4.28 36.2 -5.19 38.88 -7C41.55 -8.82 43.68 -11.29 45.27 -14.43C46.86 -17.56 47.65 -20.96 47.65 -24.63C47.65 -28.3 46.86 -31.7 45.27 -34.83C43.68 -37.96 41.55 -40.44 38.88 -42.25C36.2 -44.07 33.31 -44.97 30.22 -44.97L7.05 -44.97ZM4.91 -2.14L4.91 -47.12L30.22 -47.12C32.82 -47.12 35.33 -46.52 37.75 -45.33C40.17 -44.14 42.26 -42.54 44.02 -40.53C45.79 -38.51 47.2 -36.12 48.26 -33.34C49.32 -30.57 49.85 -27.66 49.85 -24.63C49.85 -21.59 49.32 -18.68 48.26 -15.9C47.2 -13.11 45.79 -10.72 44.02 -8.72C42.26 -6.71 40.17 -5.12 37.75 -3.93C35.33 -2.74 32.82 -2.14 30.22 -2.14ZM30.22 0C33.12 0 35.91 -0.65 38.59 -1.95C41.28 -3.25 43.61 -5 45.57 -7.2C47.53 -9.4 49.1 -12.02 50.28 -15.07C51.46 -18.11 52.05 -21.3 52.05 -24.63C52.05 -29.07 51.06 -33.18 49.06 -36.97C47.07 -40.76 44.4 -43.75 41.05 -45.96C37.7 -48.16 34.09 -49.26 30.22 -49.26L2.77 -49.26L2.77 0Z M67.46 0L67.46 -42.83L65.32 -42.83L65.32 0ZM63.18 0L63.18 -42.83L61.04 -42.83L61.04 0ZM58.89 0L58.89 -42.83L56.75 -42.83L56.75 0ZM71.74 -10.71L71.74 -16.09L91.05 -16.09L91.05 -18.23L71.74 -18.23L71.74 -20.38L91.05 -20.38L91.05 -22.52L71.74 -22.52L71.74 -24.66L91.05 -24.66L91.05 -26.8L71.74 -26.8L71.74 -32.12L92.24 -32.12L92.24 -34.27L71.74 -34.27L71.74 -36.41L92.24 -36.41L92.24 -38.55L71.74 -38.55L71.74 -40.69L92.24 -40.69L92.24 -42.83L69.6 -42.83L69.6 0L92.24 0L92.24 -2.14L71.74 -2.14L71.74 -4.28L92.24 -4.28L92.24 -6.42L71.74 -6.42L71.74 -8.57L92.24 -8.57L92.24 -10.71Z M113.56 -20.46L113.56 -18.32L126.47 -18.32C128.77 -18.32 130.73 -19.07 132.33 -20.57C133.94 -22.07 134.74 -24.07 134.74 -26.59C134.74 -28.61 133.91 -30.4 132.26 -31.95C130.6 -33.49 128.67 -34.27 126.47 -34.27L105.95 -34.27L105.95 0L108.09 0L108.09 -32.12L126.47 -32.12C128.08 -32.12 129.5 -31.56 130.74 -30.43C131.98 -29.3 132.6 -28.02 132.6 -26.59C132.6 -24.65 132.01 -23.14 130.82 -22.07C129.63 -21 128.18 -20.46 126.47 -20.46ZM113.56 -16.18L113.56 -14.04L126.47 -14.04C129.9 -14.04 132.85 -15.24 135.32 -17.64C137.79 -20.04 139.03 -23.02 139.03 -26.59C139.03 -29.78 137.78 -32.58 135.28 -34.96C132.78 -37.35 129.84 -38.55 126.47 -38.55L101.67 -38.55L101.67 0L103.81 0L103.81 -36.41L126.47 -36.41C129.25 -36.41 131.68 -35.42 133.76 -33.45C135.84 -31.47 136.88 -29.19 136.88 -26.59C136.88 -23.54 135.86 -21.04 133.82 -19.1C131.78 -17.15 129.33 -16.18 126.47 -16.18ZM113.56 -11.9L113.56 -9.76L120.02 -9.76L123.65 0L125.91 0L122.31 -9.76L124.24 -9.76L127.99 0L130.25 0L126.47 -9.76C127.15 -9.76 127.79 -9.79 128.41 -9.85L132.33 0L134.62 0L130.61 -10.2C131.32 -10.38 131.95 -10.56 132.48 -10.74L136.74 0L139.03 0L134.53 -11.6C137.21 -12.95 139.34 -14.92 140.93 -17.5C142.52 -20.09 143.31 -23.12 143.31 -26.59C143.31 -28.73 142.85 -30.81 141.94 -32.81C141.03 -34.81 139.82 -36.54 138.31 -38C136.81 -39.46 135.02 -40.63 132.94 -41.51C130.87 -42.39 128.71 -42.83 126.47 -42.83L97.38 -42.83L97.38 0L99.53 0L99.53 -40.69L126.47 -40.69C129.07 -40.69 131.51 -40.05 133.78 -38.76C136.05 -37.47 137.85 -35.74 139.17 -33.57C140.5 -31.4 141.17 -29.07 141.17 -26.59C141.17 -23.86 140.5 -21.36 139.16 -19.1C137.82 -16.84 136.03 -15.07 133.79 -13.8C131.55 -12.53 129.11 -11.9 126.47 -11.9ZM112.37 0L112.37 -27.84L126.47 -27.84C126.97 -27.84 127.4 -27.72 127.77 -27.47C128.13 -27.22 128.32 -26.93 128.32 -26.59C128.32 -25.36 127.7 -24.75 126.47 -24.75L113.56 -24.75L113.56 -22.61L126.47 -22.61C129.13 -22.61 130.46 -23.93 130.46 -26.59C130.46 -27.52 130.07 -28.32 129.3 -28.99C128.53 -29.65 127.58 -29.98 126.47 -29.98L110.23 -29.98L110.23 0Z M191.79 -13.74C191.2 -13.74 190.7 -13.76 190.29 -13.79C189.88 -13.82 189.46 -13.9 189.03 -14.02C188.59 -14.15 188.24 -14.33 187.99 -14.55C187.73 -14.76 187.51 -15.08 187.35 -15.48C187.18 -15.89 187.09 -16.38 187.09 -16.95L187.09 -42.83L184.95 -42.83L184.95 -16.95C184.95 -14.06 184.16 -11.38 182.59 -8.91C181.01 -6.44 178.87 -4.49 176.18 -3.05C173.48 -1.61 170.56 -0.89 167.4 -0.89C164.98 -0.89 162.71 -1.26 160.58 -2.01C158.44 -2.75 156.59 -3.8 155 -5.15C153.41 -6.49 152.16 -8.19 151.24 -10.23C150.31 -12.27 149.85 -14.52 149.85 -16.95L149.85 -42.83L147.71 -42.83L147.71 -16.95C147.71 -14.22 148.23 -11.7 149.27 -9.4C150.31 -7.1 151.72 -5.18 153.5 -3.63C155.27 -2.08 157.36 -0.88 159.76 -0.03C162.16 0.82 164.71 1.25 167.4 1.25C172.12 1.25 176.22 0.04 179.69 -2.38C183.04 0.04 187.07 1.25 191.79 1.25C194.49 1.25 197.04 0.82 199.44 -0.03C201.84 -0.88 203.92 -2.08 205.7 -3.63C207.47 -5.18 208.88 -7.1 209.92 -9.4C210.96 -11.7 211.48 -14.22 211.48 -16.95L211.48 -42.83L209.34 -42.83L209.34 -16.95C209.34 -13.72 208.54 -10.87 206.95 -8.4C205.35 -5.93 203.23 -4.07 200.6 -2.8C197.96 -1.53 195.03 -0.89 191.79 -0.89C187.87 -0.89 184.43 -1.85 181.47 -3.78C181.93 -4.17 182.43 -4.69 182.99 -5.32C185.53 -3.8 188.46 -3.03 191.79 -3.03C194.65 -3.03 197.23 -3.57 199.54 -4.64C201.85 -5.71 203.71 -7.32 205.1 -9.46C206.5 -11.6 207.2 -14.1 207.2 -16.95L207.2 -42.83L205.06 -42.83L205.06 -16.95C205.06 -15.09 204.71 -13.4 204.02 -11.9C203.32 -10.39 202.37 -9.15 201.16 -8.18C199.95 -7.21 198.55 -6.46 196.95 -5.95C195.36 -5.43 193.64 -5.18 191.79 -5.18C188.94 -5.18 186.43 -5.8 184.27 -7.05C184.66 -7.62 185.01 -8.23 185.31 -8.86C187.11 -7.83 189.27 -7.32 191.79 -7.32C195.03 -7.32 197.69 -8.15 199.78 -9.8C201.87 -11.46 202.92 -13.84 202.92 -16.95L202.92 -42.83L200.78 -42.83L200.78 -16.95C200.78 -14.44 199.94 -12.56 198.28 -11.32C196.61 -10.08 194.45 -9.46 191.79 -9.46C189.51 -9.46 187.62 -9.92 186.11 -10.86C186.33 -11.45 186.52 -12.14 186.68 -12.91C187.79 -12.04 189.49 -11.6 191.79 -11.6C196.35 -11.6 198.63 -13.39 198.63 -16.95L198.63 -42.83L196.49 -42.83L196.49 -16.95C196.49 -16.38 196.41 -15.89 196.24 -15.48C196.07 -15.08 195.86 -14.76 195.6 -14.55C195.34 -14.33 195 -14.15 194.56 -14.02C194.12 -13.9 193.7 -13.82 193.29 -13.79C192.89 -13.76 192.39 -13.74 191.79 -13.74ZM174.24 -42.83L172.1 -42.83L172.1 -16.95C172.1 -16.38 172.02 -15.89 171.85 -15.48C171.68 -15.08 171.47 -14.76 171.21 -14.55C170.95 -14.33 170.6 -14.15 170.17 -14.02C169.73 -13.9 169.31 -13.82 168.9 -13.79C168.5 -13.76 168 -13.74 167.4 -13.74C166.81 -13.74 166.31 -13.76 165.9 -13.79C165.49 -13.82 165.07 -13.9 164.64 -14.02C164.2 -14.15 163.85 -14.33 163.59 -14.55C163.34 -14.76 163.12 -15.08 162.96 -15.48C162.79 -15.89 162.7 -16.38 162.7 -16.95L162.7 -42.83L160.56 -42.83L160.56 -16.95C160.56 -13.39 162.84 -11.6 167.4 -11.6C171.96 -11.6 174.24 -13.39 174.24 -16.95ZM178.53 -42.83L176.39 -42.83L176.39 -16.95C176.39 -14.44 175.55 -12.56 173.89 -11.32C172.22 -10.08 170.06 -9.46 167.4 -9.46C164.75 -9.46 162.58 -10.08 160.92 -11.32C159.25 -12.56 158.42 -14.44 158.42 -16.95L158.42 -42.83L156.28 -42.83L156.28 -16.95C156.28 -13.84 157.32 -11.46 159.42 -9.8C161.51 -8.15 164.17 -7.32 167.4 -7.32C170.63 -7.32 173.3 -8.15 175.39 -9.8C177.48 -11.46 178.53 -13.84 178.53 -16.95ZM182.81 -42.83L180.67 -42.83L180.67 -16.95C180.67 -15.09 180.32 -13.4 179.63 -11.9C178.93 -10.39 177.98 -9.15 176.77 -8.18C175.56 -7.21 174.16 -6.46 172.56 -5.95C170.97 -5.43 169.25 -5.18 167.4 -5.18C165.56 -5.18 163.84 -5.43 162.24 -5.95C160.65 -6.46 159.24 -7.21 158.03 -8.18C156.82 -9.15 155.87 -10.39 155.18 -11.9C154.48 -13.4 154.14 -15.09 154.14 -16.95L154.14 -42.83L151.99 -42.83L151.99 -16.95C151.99 -14.1 152.69 -11.6 154.09 -9.46C155.49 -7.32 157.34 -5.71 159.65 -4.64C161.96 -3.57 164.55 -3.03 167.4 -3.03C170.26 -3.03 172.84 -3.57 175.15 -4.64C177.46 -5.71 179.31 -7.32 180.71 -9.46C182.11 -11.6 182.81 -14.1 182.81 -16.95Z M255.74 -42.83L242.27 -14.46L242.27 0L244.41 0L244.41 -14.46L257.89 -42.83ZM251.46 -42.83L237.99 -14.46L237.99 0L240.13 0L240.13 -14.46L253.6 -42.83ZM247.18 -42.83L233.7 -14.46L233.7 0L235.84 0L235.84 -14.46L249.32 -42.83ZM242.89 -42.83L230.46 -16.63L217.19 -42.83L215.05 -42.83L229.42 -14.46L229.42 0L231.56 0L231.56 -14.46L245.04 -42.83ZM219.37 -42.83L231.06 -20.29L232.13 -22.64L221.51 -42.83ZM223.65 -42.83L233.17 -24.99L234.27 -27.34L225.82 -42.83ZM227.99 -42.83L235.34 -29.66L236.41 -32.01L230.13 -42.83Z M295.33 -17.28L295.33 -42.83L293.19 -42.83L293.19 -21.18ZM299.62 -9.88L299.62 -42.83L297.48 -42.83L297.48 -13.5ZM270.11 -25.55L270.11 0L272.25 0L272.25 -21.65ZM265.83 -33.25L265.83 0L267.97 0L267.97 -29.33ZM266.57 -42.83L291.38 0L293.88 0L269.07 -42.83ZM271.63 -42.83L296.37 0L298.93 0L274.16 -42.83ZM276.65 -42.83L301.37 0L303.9 0L303.9 -42.83L301.76 -42.83L301.76 -3.72L279.15 -42.83ZM263.69 -39.14L286.35 0L288.82 0L264.1 -42.83L261.54 -42.83L261.54 0L263.69 0Z"></path></g></svg>