<?xml version="1.0" standalone="no"?>
<!DOCTYPE svg PUBLIC "-//W3C//DTD SVG 20010904//EN"
 "http://www.w3.org/TR/2001/REC-SVG-20010904/DTD/svg10.dtd">
<svg version="1.0" xmlns="http://www.w3.org/2000/svg"
 width="2048.000000pt" height="2048.000000pt" viewBox="0 0 2048.000000 2048.000000"
 preserveAspectRatio="xMidYMid meet">

<g transform="translate(0.000000,2048.000000) scale(0.100000,-0.100000)"
fill="#FFFFFF" stroke="none">
<path d="M12286 16668 c-2 -7 -16 -53 -31 -101 -24 -83 -77 -212 -156 -385
-23 -50 -30 -75 -22 -83 15 -15 164 6 212 31 48 24 75 52 150 150 65 87 168
287 155 300 -5 5 -65 27 -134 49 -176 56 -170 54 -174 39z"/>
<path d="M10152 16593 c-13 -3 -26 -12 -29 -21 -2 -9 -8 -26 -13 -37 -4 -11
-13 -40 -20 -65 -6 -25 -24 -85 -39 -135 -16 -49 -37 -117 -46 -150 -10 -33
-28 -92 -40 -131 -13 -39 -31 -106 -41 -148 -10 -42 -21 -76 -25 -76 -4 0 -24
44 -44 98 -20 53 -74 183 -120 287 -46 105 -95 225 -110 268 -25 70 -30 77
-54 77 -30 0 -249 -29 -268 -35 -13 -4 26 -109 92 -250 20 -44 48 -105 62
-135 86 -189 294 -624 305 -637 11 -14 -26 -132 -66 -211 -34 -66 -66 -92
-138 -112 l-63 -17 -3 -103 c-4 -134 -3 -134 111 -126 224 17 309 100 421 411
43 118 165 480 209 620 19 61 74 223 121 360 47 138 86 256 86 263 0 9 -32 12
-132 11 -73 -1 -143 -4 -156 -6z"/>
<path d="M10786 16463 c-18 -111 -81 -479 -96 -568 -5 -27 -21 -126 -35 -220
-14 -93 -30 -182 -35 -197 -5 -15 -5 -30 0 -33 4 -3 59 -12 122 -20 63 -8 129
-18 146 -21 23 -5 33 -2 36 7 8 32 37 184 86 464 24 140 54 247 80 290 54 89
227 112 321 43 76 -57 82 -154 25 -423 -19 -93 -49 -235 -66 -314 -16 -79 -27
-147 -24 -150 3 -3 70 -22 150 -42 102 -26 147 -33 153 -25 5 6 16 49 25 96 8
47 40 208 70 358 80 391 78 499 -12 616 -74 99 -186 155 -325 164 -97 6 -181
-21 -294 -95 l-26 -17 8 54 c17 114 29 102 -130 122 -77 9 -145 17 -151 17 -6
1 -18 -45 -28 -106z"/>
<path d="M8858 16452 c-128 -36 -128 -36 -128 -67 0 -34 25 -397 40 -580 5
-66 5 -124 1 -128 -5 -5 -18 10 -30 33 -12 23 -51 87 -87 143 -223 346 -265
414 -270 434 -9 34 -27 34 -116 4 -128 -43 -151 -57 -144 -88 15 -57 59 -689
50 -704 -7 -12 -35 27 -83 115 -18 32 -54 90 -79 130 -26 39 -86 141 -134 226
-82 145 -89 155 -115 153 -21 -2 -265 -87 -281 -99 -3 -2 75 -122 97 -149 8
-11 94 -144 195 -300 73 -114 163 -248 279 -413 84 -120 104 -143 121 -138 12
2 74 24 139 47 l117 43 0 47 c0 68 -39 591 -46 612 -10 30 20 18 44 -18 12
-19 22 -37 22 -39 0 -3 50 -84 110 -181 61 -98 110 -179 110 -182 0 -11 82
-123 90 -123 5 0 29 6 52 14 24 8 86 26 138 41 52 15 98 30 102 34 9 7 -7 914
-18 1074 -8 116 6 111 -176 59z"/>
<path d="M12804 16011 c-54 -14 -135 -64 -173 -107 -45 -52 -81 -140 -81 -200
0 -139 61 -232 268 -407 115 -97 137 -146 86 -186 -18 -14 -41 -21 -69 -21
-83 0 -169 52 -288 174 l-79 80 -31 -18 c-18 -11 -60 -35 -94 -53 -34 -19 -65
-38 -68 -43 -7 -11 33 -77 83 -139 47 -58 170 -155 246 -193 97 -49 165 -69
256 -75 71 -4 96 -2 149 17 152 51 236 159 235 300 0 125 -75 238 -244 373
-99 79 -110 89 -131 123 -27 44 -24 68 12 98 65 55 192 19 297 -85 28 -29 52
-56 52 -61 0 -20 46 -4 130 43 49 29 90 54 90 56 0 12 -28 54 -67 100 -60 72
-195 159 -301 196 -91 32 -215 44 -278 28z"/>
<path d="M7216 15936 c-59 -37 -135 -116 -157 -164 -11 -23 -24 -65 -29 -94
-6 -28 -13 -54 -16 -57 -10 -10 -44 43 -56 87 -7 25 -18 42 -27 42 -20 0 -261
-141 -261 -153 0 -5 8 -21 18 -35 17 -25 61 -104 137 -247 18 -33 67 -123 110
-200 43 -77 92 -165 108 -195 17 -30 53 -93 80 -140 27 -47 58 -101 69 -120
30 -54 32 -54 94 -19 86 48 206 129 202 138 -2 4 -37 64 -78 134 -130 222
-140 240 -192 346 -48 98 -50 106 -46 165 3 34 13 76 22 94 24 46 104 119 153
139 24 10 43 21 43 25 0 4 -13 36 -28 70 -16 35 -39 96 -52 136 -27 81 -34 84
-94 48z"/>
<path d="M6118 15229 c-110 -26 -261 -141 -344 -263 -40 -59 -65 -162 -65
-267 -1 -83 4 -106 30 -175 39 -101 87 -171 176 -259 82 -81 216 -154 329
-180 224 -52 497 114 625 380 63 130 63 127 -6 167 -73 42 -109 58 -132 58
-11 0 -40 -33 -77 -87 -163 -242 -325 -300 -471 -170 -42 37 -64 13 292 317
87 74 176 151 198 171 l40 36 -68 71 c-158 168 -353 242 -527 201z m123 -260
c37 -13 79 -46 79 -63 -1 -6 -42 -44 -93 -84 -51 -40 -117 -95 -147 -122 -30
-28 -59 -49 -65 -47 -39 13 -43 123 -7 193 25 49 76 98 122 117 43 19 68 20
111 6z"/>
<path d="M14305 15158 c-43 -61 -67 -91 -282 -360 -184 -229 -353 -436 -545
-668 -128 -153 -153 -190 -129 -190 6 0 36 -21 68 -48 85 -70 161 -122 178
-122 8 0 19 9 25 19 5 11 16 25 23 33 7 7 33 40 57 73 24 33 78 101 119 152
42 50 94 114 116 142 22 27 43 50 48 51 4 0 12 -12 17 -27 55 -150 197 -286
335 -322 56 -15 160 -13 222 3 274 73 514 364 517 626 1 78 -2 91 -35 160 -86
181 -264 300 -431 288 -70 -5 -82 7 -49 48 27 34 27 50 -1 65 -12 7 -62 38
-112 70 -49 33 -93 59 -97 59 -4 0 -24 -24 -44 -52z m346 -427 c50 -30 69 -49
89 -87 52 -101 17 -235 -91 -349 -72 -76 -126 -100 -224 -100 -69 0 -86 4
-125 27 -114 67 -168 185 -124 271 24 46 126 168 180 216 54 48 86 59 170 60
53 1 68 -4 125 -38z"/>
<path d="M4830 14590 c-36 -4 -88 -15 -115 -24 -75 -23 -222 -125 -318 -219
-145 -142 -372 -402 -372 -426 0 -5 23 -24 50 -43 210 -143 322 -226 1025
-750 107 -80 201 -152 209 -161 23 -29 44 -18 116 64 183 207 238 284 313 439
62 126 74 176 75 300 1 105 -16 168 -79 293 -109 217 -356 423 -599 498 -54
16 -216 43 -235 38 -3 -1 -34 -5 -70 -9z m148 -309 c99 -26 167 -64 266 -149
197 -170 277 -340 232 -494 -10 -31 -28 -73 -42 -93 -13 -20 -24 -38 -24 -40
0 -15 -95 -135 -107 -135 -8 0 -43 24 -76 53 -89 77 -302 243 -631 491 -65 49
-120 96 -124 104 -3 9 11 30 39 56 245 226 301 251 467 207z"/>
<path d="M15240 13999 c-92 -25 -194 -75 -280 -139 -79 -59 -107 -88 -153
-161 -102 -161 -106 -352 -11 -524 36 -65 143 -171 217 -214 139 -81 285 -97
432 -47 188 65 313 159 397 297 110 182 104 367 -17 548 -59 87 -168 193 -228
219 -104 46 -234 54 -357 21z m198 -259 c90 -21 157 -89 180 -182 18 -69 15
-101 -13 -161 -51 -106 -118 -165 -230 -199 -151 -45 -279 2 -340 127 -23 47
-26 61 -20 107 9 67 32 111 90 175 51 58 92 86 174 119 62 26 94 29 159 14z"/>
<path d="M10175 13583 c-34 -4 -174 -45 -250 -73 -222 -80 -447 -235 -645
-443 -222 -234 -526 -674 -681 -986 -194 -392 -299 -814 -269 -1081 17 -147
96 -326 192 -436 26 -31 48 -60 48 -67 0 -6 -64 -77 -143 -157 -78 -80 -187
-196 -242 -259 -55 -63 -140 -160 -190 -215 -249 -279 -540 -675 -740 -1006
-209 -346 -332 -666 -351 -910 -8 -119 21 -275 67 -356 37 -64 130 -165 184
-199 72 -46 178 -86 259 -97 42 -6 74 -15 79 -24 7 -12 402 -14 2801 -14 2779
0 2793 0 2816 20 15 13 38 20 64 20 177 1 403 135 484 287 101 192 94 437 -23
738 -89 230 -232 502 -372 709 -138 203 -473 648 -557 739 -11 13 -46 52 -76
88 -93 109 -200 231 -264 300 -232 250 -296 322 -296 336 0 5 12 20 26 34 77
72 166 222 203 344 67 217 13 579 -146 985 -162 411 -556 997 -868 1290 -100
95 -269 219 -375 277 -55 31 -216 94 -300 119 -128 37 -313 53 -435 37z m385
-168 c127 -35 280 -109 420 -203 180 -121 401 -349 586 -607 65 -91 196 -289
223 -337 12 -21 31 -55 42 -75 51 -90 131 -247 150 -295 11 -28 29 -72 41 -97
61 -135 135 -407 145 -534 5 -70 4 -80 -8 -71 -111 87 -177 122 -314 167 -166
53 -247 71 -505 107 -409 58 -1427 66 -1880 14 -295 -33 -632 -97 -665 -126
-5 -4 -15 -8 -22 -8 -23 0 -185 -80 -236 -116 -27 -20 -52 -33 -55 -29 -7 6
13 151 34 251 39 189 163 494 279 689 26 44 61 105 78 135 144 266 485 689
680 846 207 166 432 276 640 314 89 16 261 4 367 -25z m380 -2054 c201 -13
379 -30 403 -37 15 -5 17 -12 11 -37 -11 -51 -61 -166 -91 -210 -189 -281
-426 -438 -765 -507 -133 -28 -311 -23 -423 10 -241 71 -398 162 -546 317
-101 105 -192 252 -220 356 -5 21 -12 44 -15 51 -3 8 4 16 18 19 37 9 340 37
503 46 193 12 912 6 1125 -8z m-1770 -138 c67 -196 193 -383 341 -508 115 -97
273 -186 414 -234 181 -61 309 -77 490 -61 361 32 676 200 889 474 70 89 154
242 183 333 l18 58 55 -2 c69 -2 228 -44 324 -84 78 -33 196 -116 230 -162 17
-23 21 -43 20 -105 0 -132 -58 -226 -256 -417 -113 -110 -152 -142 -306 -257
l-104 -78 -1144 0 -1143 0 -163 123 c-245 184 -413 361 -480 505 -23 51 -34
135 -24 177 10 41 93 122 164 162 119 67 346 141 433 143 35 0 36 -1 59 -67z
m-434 -876 c27 -24 76 -64 109 -89 33 -25 69 -55 79 -67 l19 -21 -165 0 c-121
0 -169 -4 -182 -13 -28 -20 -30 -122 -17 -784 6 -324 14 -743 17 -932 l7 -344
-239 6 c-231 7 -242 8 -339 39 -222 70 -395 200 -522 392 -58 89 -88 148 -104
213 l-13 52 39 63 c36 58 231 344 258 378 7 9 25 33 41 55 102 138 345 434
485 592 25 28 55 62 66 75 17 21 201 224 230 254 5 6 43 47 84 92 41 45 80 82
87 82 6 0 34 -19 60 -43z m3314 -53 c41 -47 80 -90 85 -97 10 -12 176 -198
185 -207 3 -3 39 -43 80 -90 41 -47 77 -87 80 -90 3 -3 37 -43 75 -90 38 -47
106 -128 150 -180 44 -52 93 -113 108 -135 30 -44 79 -109 173 -231 105 -138
244 -354 244 -380 0 -34 -74 -194 -127 -273 -115 -175 -301 -311 -517 -380
l-98 -32 -235 0 c-130 0 -238 2 -241 5 -5 6 11 752 28 1326 14 473 13 682 -6
708 -15 21 -21 22 -175 22 -87 0 -159 4 -159 9 0 4 40 36 88 70 49 33 103 77
122 96 19 19 41 35 49 34 9 0 50 -39 91 -85z m-146 -314 c-4 -291 -27 -1318
-30 -1327 -3 -10 -326 -13 -1574 -13 l-1570 0 0 148 c0 81 -5 389 -10 685 -6
296 -8 542 -5 547 4 7 591 9 1598 8 l1592 -3 -1 -45z m-4558 -1466 c103 -173
189 -267 336 -365 108 -73 206 -120 308 -148 41 -12 77 -24 81 -28 6 -8 17
-42 60 -193 12 -41 39 -132 60 -201 21 -70 39 -133 39 -142 0 -15 -36 -16
-367 -11 -413 6 -478 13 -578 69 -120 67 -180 146 -216 281 -44 170 8 418 147
702 36 72 67 132 69 132 2 0 29 -43 61 -96z m6035 29 c51 -114 120 -285 140
-348 57 -178 68 -364 29 -470 -58 -152 -161 -237 -338 -275 -76 -17 -136 -19
-465 -21 -208 -1 -380 1 -382 3 -3 2 5 36 16 74 12 38 46 155 76 259 30 105
60 196 65 203 6 6 18 12 28 12 29 0 170 50 255 90 102 49 225 140 304 227 53
58 144 185 205 286 9 15 21 27 27 27 5 0 23 -30 40 -67z m-1511 -238 l0 -195
-1562 2 -1563 3 -3 193 -2 192 1565 0 1565 0 0 -195z m495 -346 c2 -2 -6 -33
-17 -69 -55 -177 -121 -389 -130 -422 l-11 -38 -1216 -2 c-669 -2 -1529 -2
-1912 0 l-697 2 -5 23 c-2 12 -34 124 -71 249 -36 125 -66 234 -66 243 0 13
220 15 2013 18 2046 3 2104 3 2112 -4z"/>
<path d="M10437 9883 c-8 -10 -36 -83 -62 -163 -41 -128 -97 -297 -113 -340
-3 -8 -28 -82 -57 -165 -29 -82 -71 -201 -94 -263 -22 -62 -41 -121 -41 -131
0 -31 34 -53 76 -49 l38 3 59 170 c33 94 88 251 122 350 35 99 68 196 75 215
6 19 15 44 20 55 4 11 13 36 20 55 7 19 16 44 20 55 19 46 50 146 50 163 0 10
-7 28 -16 40 -19 27 -74 30 -97 5z"/>
<path d="M9839 9660 c-68 -50 -188 -136 -267 -193 -140 -100 -142 -103 -140
-137 3 -30 12 -41 64 -80 457 -338 466 -343 501 -327 20 9 53 53 53 71 0 13
-52 57 -125 107 -104 72 -219 154 -272 194 l-43 33 53 39 c28 22 108 81 177
131 175 129 190 143 190 185 0 35 -24 67 -52 67 -8 0 -71 -41 -139 -90z"/>
<path d="M10606 9731 c-12 -13 -16 -32 -14 -57 3 -36 10 -43 128 -132 216
-162 271 -205 267 -216 -2 -5 -84 -67 -183 -138 -221 -158 -228 -166 -219
-207 9 -41 44 -65 76 -52 13 5 58 33 99 63 41 30 136 98 210 152 173 125 210
158 210 188 0 29 -29 57 -140 133 -79 54 -232 169 -306 230 -26 21 -93 55
-107 55 -2 0 -12 -9 -21 -19z"/>
<path d="M16115 12883 c-104 -57 -223 -100 -555 -203 -199 -61 -454 -142 -459
-146 -3 -3 48 -141 59 -159 4 -5 15 -36 25 -67 11 -32 23 -58 27 -58 5 0 34
11 66 24 82 34 386 132 462 150 120 27 120 27 183 -11 93 -57 103 -76 152
-300 4 -17 12 -23 33 -23 24 0 271 52 309 65 14 5 -36 155 -75 224 -34 61 -65
85 -157 121 -120 48 -121 55 -15 86 104 32 108 42 55 153 -19 40 -40 93 -46
117 -12 48 -19 51 -64 27z"/>
<path d="M4625 12642 c-224 -118 -599 -346 -646 -393 -25 -25 -24 -61 1 -77
15 -9 32 -10 67 -2 56 12 325 112 397 146 27 13 52 21 56 19 4 -3 1 -32 -7
-65 -21 -81 -11 -137 31 -186 l34 -39 26 24 c15 14 42 53 62 88 19 35 39 63
43 63 4 0 34 -55 65 -122 75 -159 133 -256 158 -264 14 -4 31 3 56 24 35 28
37 33 36 85 -1 39 -17 98 -54 204 -29 81 -83 238 -121 348 -38 110 -74 201
-81 202 -7 2 -62 -23 -123 -55z"/>
<path d="M4285 11981 c-72 -18 -123 -60 -150 -123 -27 -65 -18 -105 34 -161
34 -38 71 -56 156 -78 194 -51 336 -2 375 128 28 94 -23 162 -151 203 -110 34
-204 45 -264 31z m132 -102 c88 -12 169 -33 189 -50 8 -6 14 -28 14 -48 0 -81
-76 -105 -240 -76 -122 21 -170 47 -170 91 0 55 28 77 122 93 4 0 42 -4 85
-10z"/>
<path d="M16400 11848 c-176 -21 -162 -17 -157 -41 3 -12 9 -52 12 -88 l7 -66
-89 -11 c-48 -7 -160 -17 -248 -23 -272 -18 -387 -55 -478 -151 -71 -75 -84
-129 -69 -283 7 -66 12 -134 12 -152 0 -17 3 -34 8 -36 4 -2 63 1 132 7 l125
11 2 93 c4 159 34 190 210 216 127 19 423 50 427 45 3 -2 9 -51 16 -109 6 -58
13 -116 16 -129 l5 -24 122 7 c67 4 125 10 128 14 4 4 2 63 -3 130 -5 68 -8
125 -6 127 3 4 89 16 263 37 114 14 139 23 130 46 -4 9 -17 69 -29 132 l-21
115 -30 3 c-16 1 -99 -6 -183 -16 -176 -21 -165 -25 -177 72 -4 33 -9 65 -12
73 -6 14 -4 14 -113 1z"/>
<path d="M4178 11550 c-96 -29 -155 -114 -137 -198 8 -41 55 -100 97 -124 53
-30 187 -44 288 -30 102 14 152 41 179 98 58 123 6 213 -145 248 -68 17 -236
20 -282 6z m253 -90 c98 -18 144 -104 80 -149 -59 -42 -333 -21 -373 29 -37
46 -18 95 47 118 39 14 177 15 246 2z"/>
<path d="M4115 11126 c-60 -19 -94 -44 -117 -89 -26 -52 -27 -94 -2 -143 41
-79 131 -114 290 -114 117 0 192 21 243 69 35 32 55 100 46 150 -9 50 -76 112
-138 129 -60 15 -270 15 -322 -2z m332 -92 c24 -18 28 -28 28 -69 0 -68 -26
-85 -137 -92 -128 -8 -211 3 -241 33 -28 28 -41 78 -27 104 9 18 46 33 100 44
14 2 75 4 137 3 96 -2 116 -5 140 -23z"/>
<path d="M16324 10673 l-9 -98 -30 -3 c-16 -2 -70 1 -120 7 -92 12 -129 16
-415 50 -312 38 -353 42 -357 38 -5 -6 -27 -296 -22 -301 4 -4 253 -32 589
-66 113 -12 232 -24 265 -28 l60 -7 -5 -85 c-2 -47 -4 -107 -5 -135 0 -48 1
-49 35 -56 19 -4 78 -11 132 -15 l96 -6 6 53 c3 30 9 90 13 134 l8 80 44 -3
c63 -5 153 -30 174 -50 16 -14 18 -29 15 -122 l-3 -105 123 -16 c106 -13 124
-13 134 -1 8 10 12 61 13 156 0 133 -2 144 -27 196 -37 73 -110 147 -182 181
-32 15 -102 38 -155 50 -53 12 -102 23 -109 25 -11 3 -13 26 -10 102 l3 97
-70 7 c-38 3 -95 9 -126 13 l-56 6 -9 -98z"/>
<path d="M4447 10653 c-4 -3 -7 -26 -7 -49 0 -41 -2 -43 -32 -49 -18 -3 -105
-5 -193 -3 l-159 3 -7 34 c-8 40 -32 66 -53 58 -13 -5 -14 -25 -9 -134 4 -75
11 -131 17 -136 6 -4 22 -6 36 -5 22 3 25 8 25 43 l0 40 234 0 233 -1 -7 96
c-4 52 -9 98 -12 103 -5 9 -57 9 -66 0z"/>
<path d="M4198 10214 c-107 -25 -154 -59 -183 -128 -31 -74 8 -171 84 -208 40
-20 62 -23 161 -23 105 0 120 2 175 28 96 45 135 92 135 163 0 46 -34 120 -63
136 -82 46 -203 58 -309 32z m242 -87 c74 -25 63 -113 -19 -150 -39 -18 -65
-21 -167 -22 -106 0 -125 2 -143 19 -21 19 -27 58 -15 91 21 54 246 95 344 62z"/>
<path d="M15653 9880 c-171 -31 -317 -135 -398 -284 -62 -116 -79 -181 -72
-285 9 -145 68 -258 184 -357 77 -65 111 -83 224 -120 70 -23 102 -28 189 -28
127 0 190 14 295 65 86 42 119 69 176 139 80 99 119 214 119 352 0 147 -49
251 -173 365 -118 109 -378 182 -544 153z m208 -296 c70 -20 151 -67 182 -104
39 -46 60 -112 55 -170 -7 -65 -47 -123 -118 -169 -49 -31 -64 -35 -139 -39
-131 -7 -223 20 -310 93 -41 35 -62 79 -68 147 -10 100 54 197 159 239 55 23
167 24 239 3z"/>
<path d="M4281 9779 c-129 -35 -169 -63 -196 -139 -13 -35 -13 -50 -4 -79 22
-66 45 -96 89 -119 40 -21 55 -23 140 -19 146 7 278 65 316 139 37 72 -4 175
-86 219 -46 25 -161 24 -259 -2z m231 -80 c41 -11 55 -38 44 -84 -18 -73 -276
-137 -365 -90 -49 25 -55 69 -13 107 39 37 67 49 146 63 89 17 141 18 188 4z"/>
<path d="M4475 9403 c-51 -11 -154 -47 -188 -66 -51 -28 -80 -79 -81 -143 -1
-66 17 -99 74 -132 36 -22 57 -27 105 -26 154 2 316 77 352 162 17 42 9 112
-18 146 -42 53 -152 80 -244 59z m160 -97 c28 -12 35 -20 35 -44 0 -55 -71
-101 -192 -126 -97 -20 -148 -20 -176 0 -44 30 -18 105 49 139 80 42 221 57
284 31z"/>
<path d="M4747 9077 c-17 -11 -16 -15 3 -54 23 -48 25 -72 8 -77 -7 -3 -76
-25 -153 -49 -199 -64 -201 -65 -219 -29 -17 33 -36 44 -56 32 -17 -11 -4 -57
43 -150 27 -54 36 -65 57 -65 23 0 25 3 22 43 -2 32 1 42 13 42 14 0 132 42
165 59 8 4 49 16 90 25 41 9 83 21 92 27 10 5 25 9 33 9 37 0 22 59 -37 153
-33 51 -36 53 -61 34z"/>
<path d="M14936 8668 c-36 -67 -64 -123 -63 -125 4 -3 598 -293 602 -293 1 0
79 -36 171 -80 196 -94 180 -86 311 -144 57 -25 158 -73 225 -107 l123 -61 18
24 c10 13 46 72 79 133 55 101 58 110 42 122 -10 7 -22 13 -27 13 -10 0 -197
82 -345 151 -46 21 -85 39 -87 39 -2 0 -75 34 -162 76 -87 42 -180 86 -208 99
-27 13 -171 80 -320 149 -148 69 -275 126 -281 126 -7 0 -41 -55 -78 -122z"/>
<path d="M4737 8710 c-96 -33 -126 -49 -175 -94 -68 -63 -81 -133 -36 -201 38
-59 68 -77 138 -82 53 -5 70 -1 127 25 76 34 172 97 209 137 55 59 17 180 -70
225 -53 27 -89 25 -193 -10z m193 -82 c55 -60 -8 -129 -175 -190 -71 -26 -140
-24 -159 4 -48 67 20 146 164 190 81 24 144 23 170 -4z"/>
<path d="M5000 8393 c-171 -65 -290 -171 -290 -259 0 -66 69 -134 150 -148 99
-17 327 101 375 195 36 68 3 147 -81 200 -31 19 -118 25 -154 12z m141 -91 c4
-4 10 -22 14 -40 6 -31 3 -38 -42 -80 -82 -80 -203 -127 -277 -108 -32 8 -57
53 -46 82 17 44 154 133 236 153 39 10 103 5 115 -7z"/>
<path d="M14703 8273 c-17 -27 -53 -80 -81 -119 -28 -38 -48 -74 -44 -80 8
-11 96 -69 152 -102 19 -10 114 -66 210 -124 96 -57 218 -128 270 -158 52 -30
155 -89 228 -132 73 -43 140 -78 147 -78 8 0 40 35 71 78 31 42 70 91 85 108
l29 30 -22 20 c-13 12 -70 47 -128 79 -58 32 -116 66 -130 75 -14 9 -47 30
-75 45 -70 39 -396 233 -547 327 -69 43 -128 78 -131 78 -2 0 -18 -21 -34 -47z"/>
<path d="M5255 8046 c-15 -11 -14 -15 19 -44 20 -17 36 -35 36 -39 0 -10 -49
-42 -155 -102 -147 -84 -131 -81 -176 -32 -41 44 -72 51 -76 16 -3 -21 104
-172 132 -188 30 -16 47 -1 39 38 -4 22 -2 35 5 35 18 0 209 117 344 211 21
15 -3 59 -41 75 -89 38 -109 43 -127 30z"/>
<path d="M5504 7789 c-3 -6 8 -25 25 -43 17 -18 31 -35 31 -38 0 -3 -19 -18
-42 -34 -23 -16 -85 -64 -136 -106 -52 -43 -98 -78 -101 -78 -4 0 -20 14 -36
30 -32 33 -56 38 -75 15 -10 -12 -6 -22 21 -57 53 -68 141 -158 155 -158 7 0
20 10 28 22 14 20 14 24 -4 54 l-20 32 53 48 c29 27 93 76 141 109 77 52 136
108 136 128 0 4 -19 16 -42 28 -24 12 -54 30 -67 40 -26 21 -56 25 -67 8z"/>
<path d="M14355 7760 c-62 -13 -113 -38 -193 -93 -197 -136 -274 -333 -208
-530 41 -123 110 -221 225 -320 168 -145 418 -176 624 -78 76 36 194 146 227
211 37 74 70 181 70 230 0 113 -59 246 -155 348 -168 180 -398 271 -590 232z
m221 -295 c111 -42 174 -96 223 -192 25 -50 28 -140 7 -181 -20 -38 -84 -97
-134 -122 -93 -48 -261 -10 -370 85 -66 57 -93 112 -94 187 0 83 23 139 79
188 82 72 165 82 289 35z"/>
<path d="M15901 7603 c-46 -23 -87 -83 -102 -148 -11 -49 -10 -56 11 -89 39
-64 83 -89 151 -89 50 0 67 4 101 29 111 78 113 217 5 288 -48 31 -114 34
-166 9z"/>
<path d="M5735 7530 c-7 -11 21 -57 44 -70 13 -7 -6 -30 -108 -127 -68 -65
-128 -120 -134 -122 -5 -2 -25 13 -43 33 -33 36 -34 36 -59 20 -14 -9 -25 -22
-25 -29 0 -21 187 -195 210 -195 30 0 35 25 11 59 -12 16 -21 34 -21 41 0 23
53 80 181 195 141 127 143 133 71 156 -20 6 -51 20 -68 30 -35 21 -50 24 -59
9z"/>
<path d="M5975 7291 c-65 -29 -148 -113 -189 -190 -30 -57 -36 -79 -36 -130 0
-71 15 -100 74 -142 71 -52 130 -33 253 84 83 79 153 176 153 214 0 54 -68
143 -129 169 -44 19 -78 17 -126 -5z m144 -97 c26 -58 10 -99 -73 -191 -59
-66 -115 -110 -148 -118 -33 -9 -68 23 -68 63 0 72 122 246 194 277 38 16 79
3 95 -31z"/>
<path d="M6328 7009 c-26 -15 -22 -26 17 -45 19 -9 35 -21 35 -26 0 -22 -213
-278 -231 -278 -6 0 -21 12 -34 26 l-24 25 -20 -20 c-12 -12 -21 -25 -21 -30
0 -11 145 -125 202 -160 l36 -22 16 23 c22 31 21 35 -24 63 -22 14 -40 31 -40
38 0 12 49 72 214 261 28 32 52 62 53 65 5 13 -14 28 -71 59 -63 34 -81 37
-108 21z"/>
<path d="M6678 6772 c-24 -5 -23 -11 9 -44 32 -34 34 -29 -78 -183 -110 -151
-101 -144 -145 -110 l-37 28 -18 -24 c-10 -13 -19 -29 -19 -36 0 -13 230 -163
252 -163 8 0 21 12 29 26 13 25 12 28 -16 50 -17 13 -35 24 -42 24 -6 0 -15 5
-18 10 -7 12 81 150 172 268 34 45 63 86 63 90 0 8 -91 56 -120 64 -8 2 -23 3
-32 0z"/>
<path d="M7022 6548 c-20 -20 -14 -45 13 -52 39 -10 40 -30 3 -83 -18 -27 -55
-90 -83 -141 -27 -50 -58 -94 -68 -98 -9 -3 -30 4 -46 15 -36 26 -57 27 -70 2
-8 -14 -5 -23 17 -44 30 -27 252 -157 270 -157 13 0 32 32 32 54 0 8 -19 24
-42 35 -24 11 -52 27 -63 36 -17 14 -18 18 -5 38 8 12 34 56 59 97 24 41 71
115 103 164 32 49 56 91 54 94 -6 6 -98 37 -137 46 -14 3 -31 0 -37 -6z"/>
<path d="M12463 6448 c-18 -23 -35 -77 -29 -87 11 -18 105 -75 229 -141 65
-34 116 -67 114 -74 -2 -6 -28 -28 -58 -49 -30 -21 -55 -44 -57 -52 -5 -22 50
-124 69 -130 10 -3 39 5 66 19 26 13 59 27 71 31 24 7 24 7 17 -58 -4 -36 -8
-125 -8 -199 -2 -155 13 -208 57 -208 20 0 29 10 51 57 47 104 238 662 231
678 -4 12 -51 28 -246 84 -74 22 -186 55 -248 75 -91 29 -230 66 -246 66 -2 0
-8 -6 -13 -12z"/>
<path d="M7412 6349 c-66 -33 -140 -138 -180 -258 -48 -141 -16 -221 104 -267
37 -14 51 -15 83 -6 99 30 231 244 231 375 0 53 -28 99 -85 139 -54 38 -99 43
-153 17z m125 -81 c26 -24 31 -86 12 -135 -23 -59 -80 -169 -97 -188 -46 -54
-92 -64 -134 -27 -36 30 -12 134 58 252 67 115 113 143 161 98z"/>
<path d="M12313 6184 c-17 -7 -43 -29 -57 -47 -21 -28 -26 -45 -26 -93 0 -56
11 -116 29 -159 53 -123 108 -197 158 -210 44 -11 133 23 176 66 39 39 40 40
35 102 -8 89 -61 217 -117 279 -67 75 -126 94 -198 62z m119 -81 c50 -54 95
-165 104 -258 7 -70 -2 -84 -64 -92 -37 -5 -40 -3 -70 43 -45 71 -71 137 -83
215 -10 59 -10 72 5 94 23 35 73 34 108 -2z"/>
<path d="M7779 6151 c-73 -64 -149 -228 -151 -325 -2 -122 89 -204 205 -182
57 11 110 66 162 170 39 78 47 106 52 169 5 66 3 79 -18 117 -32 56 -90 90
-156 90 -44 0 -56 -5 -94 -39z m162 -49 c40 -33 23 -141 -46 -285 -31 -67 -66
-97 -112 -97 -28 0 -36 5 -50 35 -23 48 -9 115 50 239 58 122 102 152 158 108z"/>
<path d="M11931 6020 c-29 -22 -59 -40 -67 -40 -16 0 -18 -23 -4 -50 9 -17 13
-18 45 -4 47 19 52 18 59 -13 4 -16 20 -62 35 -103 16 -41 36 -95 44 -120 8
-25 17 -53 22 -62 7 -18 4 -21 -45 -32 -42 -10 -53 -22 -46 -50 9 -35 35 -34
171 12 115 39 132 54 99 87 -12 11 -26 15 -43 11 -14 -4 -32 -8 -40 -9 -9 -1
-32 56 -73 183 -73 226 -74 230 -91 230 -7 0 -36 -18 -66 -40z"/>
<path d="M8245 6025 c-135 -47 -232 -336 -155 -462 26 -43 87 -73 148 -73 89
0 166 79 214 219 52 154 9 289 -103 321 -43 13 -55 12 -104 -5z m111 -76 c25
-28 25 -143 1 -212 -56 -157 -122 -213 -183 -152 -23 23 -24 30 -18 88 10 97
81 262 122 287 28 16 58 11 78 -11z"/>
<path d="M11563 5905 c-40 -19 -73 -38 -73 -42 0 -5 6 -18 14 -28 12 -17 18
-18 53 -7 53 16 53 16 53 -14 0 -14 13 -72 29 -128 35 -121 50 -193 43 -201
-3 -3 -13 -5 -23 -5 -10 0 -30 -5 -44 -12 -20 -9 -25 -18 -23 -37 3 -23 7 -26
43 -24 22 1 84 15 138 33 73 23 97 35 97 48 0 34 -16 44 -60 40 l-42 -3 -52
205 c-37 147 -55 205 -66 207 -8 1 -48 -13 -87 -32z"/>
<path d="M8665 5894 c-16 -8 -42 -30 -57 -47 -62 -72 -113 -277 -89 -358 14
-46 79 -105 133 -120 80 -21 170 32 212 127 9 21 21 46 26 56 16 29 33 148 28
198 -12 118 -151 197 -253 144z m118 -65 c27 -12 47 -47 47 -84 0 -45 -41
-200 -63 -239 -32 -57 -70 -82 -101 -68 -14 6 -33 23 -42 37 -15 24 -16 35 -6
102 15 96 54 209 83 239 25 26 46 30 82 13z"/>
<path d="M11179 5827 c-75 -50 -100 -128 -80 -248 17 -106 48 -176 98 -227 45
-44 45 -44 107 -40 74 4 104 24 142 92 25 46 27 54 21 146 -9 148 -54 242
-136 284 -45 24 -112 20 -152 -7z m126 -70 c45 -45 68 -127 69 -243 1 -77 -2
-95 -18 -113 -34 -37 -74 -25 -110 32 -26 42 -56 172 -56 242 0 52 4 66 25 89
32 34 50 33 90 -7z"/>
<path d="M9123 5801 c-58 -7 -89 -30 -79 -56 5 -13 14 -15 46 -10 l40 7 0 -34
c0 -18 -10 -102 -22 -187 l-22 -153 -42 5 c-53 6 -66 -3 -62 -39 3 -27 7 -29
86 -45 46 -10 111 -19 145 -21 l62 -3 3 32 c3 30 1 32 -35 38 -21 4 -44 8 -51
11 -13 4 -13 6 18 214 11 69 21 152 22 185 l3 60 -30 1 c-16 1 -54 -1 -82 -5z"/>
<path d="M10764 5763 c-16 -8 -46 -38 -65 -65 -34 -50 -34 -52 -34 -157 1 -99
3 -110 34 -174 53 -110 134 -155 216 -122 92 39 120 93 119 230 -2 146 -46
250 -125 290 -36 19 -105 18 -145 -2z m115 -72 c15 -16 33 -49 40 -72 16 -54
26 -185 17 -231 -13 -71 -78 -102 -117 -55 -26 32 -46 109 -53 207 -6 99 7
148 44 167 35 18 38 17 69 -16z"/>
<path d="M9515 5751 c-63 -27 -97 -97 -116 -237 -16 -110 -2 -175 47 -232 27
-33 45 -43 88 -53 30 -6 66 -9 82 -5 42 11 88 66 115 138 20 53 24 81 24 173
0 120 -12 157 -66 198 -30 21 -140 33 -174 18z m129 -76 c21 -22 29 -74 23
-153 -14 -178 -51 -238 -132 -218 -38 10 -48 54 -42 179 7 160 29 207 98 207
21 0 44 -7 53 -15z"/>
<path d="M10335 5722 c-77 -49 -105 -113 -105 -236 0 -185 86 -309 203 -293
94 13 156 94 165 216 9 136 -28 255 -96 306 -38 28 -128 32 -167 7z m129 -77
c17 -19 25 -41 29 -92 18 -190 -6 -283 -73 -283 -33 0 -63 32 -80 84 -18 57
-9 255 13 290 24 36 78 36 111 1z"/>
<path d="M9950 5704 c-78 -25 -97 -74 -27 -74 l42 0 -3 -167 c-2 -93 -5 -173
-7 -180 -2 -6 -26 -13 -52 -15 -42 -3 -48 -6 -51 -27 -2 -13 2 -28 10 -32 7
-5 75 -9 150 -9 l138 0 6 25 c4 14 5 28 2 30 -3 3 -50 11 -91 14 -4 1 -7 101
-6 224 l1 222 -33 2 c-19 1 -54 -5 -79 -13z"/>
</g>
</svg>
